<?xml version="1.0" encoding="utf-8"?>
<!-- Generator: Adobe Illustrator 18.0.0, SVG Export Plug-In . SVG Version: 6.00 Build 0)  -->
<!DOCTYPE svg PUBLIC "-//W3C//DTD SVG 1.1//EN" "http://www.w3.org/Graphics/SVG/1.1/DTD/svg11.dtd">
<svg version="1.1" id="Слой_1" xmlns="http://www.w3.org/2000/svg" xmlns:xlink="http://www.w3.org/1999/xlink" x="0px" y="0px"
	 viewBox="219 0 268 1024" enable-background="new 219 0 268 1024" xml:space="preserve">
<path fill="#000000"      d="
	M463.9,229.2c-0.3,0-0.6,0.3-0.9,0.3c-0.3,0-0.6,0.2-0.9,0.2h-87.6l-2.3-142.8c3.8-4.9,6.2-11.4,6.2-18.5c0-8-3-15.2-7.8-20.3
	l11.1-19.1L367.3,4.5h-28.6l-14.3,24.6l11.1,19.1c-4.8,5.1-7.8,12.2-7.8,20.2c0,7,2.3,13.6,6.2,18.6l-2.3,142.8h-86.8
	c-0.3,0-0.6-0.2-0.9-0.2c-0.3,0-0.6-0.2-0.9-0.2c-8.7,0-15.7,7-15.7,15.7s7,16,15.7,16c6.8,0,12.6-4.8,14.8-10.1h63.6v705.3
	l30.1,62.4l30.1-62.4V250.9h67.6c2.2,5.3,8,10.1,14.8,10.1c8.7,0,15.7-7.2,15.7-15.9S472.6,229.2,463.9,229.2z"/>
</svg>
